<?xml version="1.0" encoding="UTF-8"?>
<svg width="30px" height="8px" viewBox="0 0 30 8" version="1.1" xmlns="http://www.w3.org/2000/svg" xmlns:xlink="http://www.w3.org/1999/xlink">
    <!-- Generator: Sketch 50 (54983) - http://www.bohemiancoding.com/sketch -->
    <title>⟶</title>
    <desc>Created with Sketch.</desc>
    <defs></defs>
    <g id="Page-1" stroke="none" stroke-width="1" fill="none" fill-rule="evenodd">
        <g id="kit-james-single-03-copy" transform="translate(-815.000000, -1831.000000)" fill="#FF5EBD">
            <g id="Group-3" transform="translate(0.000000, 379.000000)">
                <g id="Group">
                    <g id="Group-11">
                        <g id="Group-8" transform="translate(0.000000, 128.000000)">
                            <g id="Group-15">
                                <g id="Group-16">
                                    <g id="Group-17">
                                        <g id="Group-23">
                                            <g id="Group-6" transform="translate(0.000000, 1061.000000)">
                                                <path d="M844.38,266.84 L844.38,267.04 C842.46,267.86 840.94,269.34 839.62,270.86 L839.22,270.48 C839.68,269.82 840.26,269.18 840.86,268.56 C841.04,268.38 841.14,268.16 841.14,268 C841.14,267.8 840.98,267.6 840.62,267.6 L815.1,267.6 L815.1,266.28 L840.64,266.28 C840.84,266.28 841.16,266.04 841.16,265.84 C841.16,265.66 841.08,265.54 840.88,265.34 C840.3,264.78 839.68,264.06 839.24,263.4 L839.64,263.02 C840.94,264.52 842.46,266.04 844.38,266.84 Z" id="⟶"></path>
                                            </g>
                                        </g>
                                    </g>
                                </g>
                            </g>
                        </g>
                    </g>
                </g>
            </g>
        </g>
    </g>
</svg>