<?xml version="1.0" encoding="UTF-8"?>
<svg width="911px" height="29px" viewBox="0 0 911 29" version="1.1" xmlns="http://www.w3.org/2000/svg" xmlns:xlink="http://www.w3.org/1999/xlink">
    <!-- Generator: Sketch 50 (54983) - http://www.bohemiancoding.com/sketch -->
    <title>Group 12</title>
    <desc>Created with Sketch.</desc>
    <defs></defs>
    <g id="Page-1" stroke="none" stroke-width="1" fill="none" fill-rule="evenodd">
        <g id="kit-james-home-03-copy-2" transform="translate(-265.000000, -2007.000000)" fill="#141414">
            <g id="Group-10" transform="translate(-4.000000, 507.000000)">
                <g id="Group-7" transform="translate(269.000000, 986.000000)">
                    <g id="tagline" transform="translate(0.000000, 503.000000)">
                        <g id="Group-12" transform="translate(0.000000, 11.000000)">
                            <path d="M163.040673,28.4599609 L163.040673,3.36328125 L168.883447,3.36328125 C170.397126,3.36328125 171.663552,3.51464692 172.682763,3.81738281 C173.701974,4.1201187 174.519349,4.59944333 175.134912,5.25537109 C175.750475,5.91129885 176.186912,6.71605969 176.444238,7.66967773 C176.701563,8.62329578 176.830224,9.79637976 176.830224,11.1889648 L176.830224,20.2407227 C176.830224,21.6736725 176.699041,22.8896434 176.436669,23.8886719 C176.174298,24.8877003 175.742906,25.7353481 175.14248,26.4316406 C174.542054,27.1279332 173.742338,27.6400537 172.74331,27.9680176 C171.744282,28.2959815 170.51822,28.4599609 169.065087,28.4599609 L163.040673,28.4599609 Z M167.611962,25.2509766 L168.91372,25.2509766 C169.367824,25.2509766 169.76642,25.2106124 170.109521,25.1298828 C170.452622,25.0491532 170.740216,24.9532883 170.972314,24.8422852 C171.204411,24.731282 171.398664,24.5496432 171.555078,24.2973633 C171.711491,24.0450834 171.830061,23.8129893 171.910791,23.6010742 C171.99152,23.3891591 172.052066,23.0687684 172.092431,22.6398926 C172.132796,22.2110167 172.158024,21.8452164 172.168115,21.5424805 C172.178206,21.2397446 172.183251,20.7906931 172.183251,20.1953125 L172.183251,11.0224609 C172.183251,10.4270804 172.17316,9.94775572 172.152978,9.58447266 C172.132796,9.22118959 172.084863,8.85538921 172.009179,8.48706055 C171.933495,8.11873188 171.822494,7.83365986 171.676171,7.63183594 C171.529849,7.43001201 171.335596,7.24585044 171.093408,7.0793457 C170.851219,6.91284096 170.548488,6.79679395 170.185205,6.73120117 C169.821921,6.6656084 169.382961,6.6328125 168.86831,6.6328125 L167.611962,6.6328125 L167.611962,25.2509766 Z M186.367236,28.7626953 C183.78389,28.7626953 181.932183,28.0613677 180.81206,26.6586914 C179.691937,25.2560151 179.131884,23.2024875 179.131884,20.4980469 L179.131884,11.234375 C179.131884,9.90233709 179.258022,8.74691245 179.510302,7.76806641 C179.762582,6.78922037 180.168747,5.94157259 180.728808,5.22509766 C181.288869,4.50862272 182.03813,3.97127458 182.976611,3.61303711 C183.915092,3.25479964 185.045289,3.07568359 186.367236,3.07568359 C188.940491,3.07568359 190.789675,3.76692017 191.914843,5.14941406 C193.040012,6.53190795 193.602587,8.56020798 193.602587,11.234375 L193.602587,20.4980469 C193.602587,21.8099024 193.473927,22.9628043 193.216601,23.9567871 C192.959276,24.9507699 192.550588,25.8135543 191.990527,26.545166 C191.430465,27.2767777 190.681205,27.8292625 189.742724,28.2026367 C188.804243,28.576011 187.679091,28.7626953 186.367236,28.7626953 Z M186.367236,25.3720703 C186.811248,25.3720703 187.189663,25.3064785 187.50249,25.175293 C187.815317,25.0441074 188.06507,24.8725597 188.251757,24.6606445 C188.438444,24.4487294 188.584765,24.1712257 188.690722,23.828125 C188.79668,23.4850243 188.867317,23.1419288 188.902636,22.7988281 C188.937955,22.4557275 188.955615,22.0470401 188.955615,21.5727539 L188.955615,10.1748047 C188.955615,9.56933291 188.925342,9.06478066 188.864794,8.66113281 C188.804247,8.25748496 188.685677,7.87654802 188.509082,7.51831055 C188.332486,7.16007308 188.067596,6.89266039 187.714404,6.71606445 C187.361212,6.53946852 186.91216,6.45117188 186.367236,6.45117188 C185.822311,6.45117188 185.370737,6.53946852 185.0125,6.71606445 C184.654262,6.89266039 184.389372,7.16007308 184.217822,7.51831055 C184.046271,7.87654802 183.930224,8.25748496 183.869677,8.66113281 C183.80913,9.06478066 183.778857,9.56933291 183.778857,10.1748047 L183.778857,21.5727539 C183.778857,22.0470401 183.796516,22.4557275 183.831835,22.7988281 C183.867155,23.1419288 183.937792,23.4850243 184.04375,23.828125 C184.149707,24.1712257 184.293504,24.4487294 184.475146,24.6606445 C184.656788,24.8725597 184.906541,25.0441074 185.224414,25.175293 C185.542286,25.3064785 185.923223,25.3720703 186.367236,25.3720703 Z M202.579541,28.7929688 C200.208109,28.7929688 198.5002,28.0512769 197.455761,26.5678711 C196.411322,25.0844652 195.889111,22.9249816 195.889111,20.0893555 L195.889111,11.9155273 C195.889111,10.4724863 196.002635,9.22876499 196.229687,8.18432617 C196.456739,7.13988736 196.837676,6.22412503 197.372509,5.43701172 C197.907343,4.64989841 198.643989,4.05957228 199.58247,3.66601562 C200.520951,3.27245897 201.671331,3.07568359 203.033642,3.07568359 C205.516076,3.07568359 207.297146,3.68366905 208.376904,4.8996582 C209.456662,6.11564736 209.996533,7.95978582 209.996533,10.4321289 L209.996533,11.6582031 L205.622021,11.6582031 L205.622021,10.3564453 C205.622021,9.80142952 205.609407,9.3473325 205.584179,8.99414062 C205.558951,8.64094875 205.498405,8.28523942 205.402539,7.92700195 C205.306672,7.56876448 205.16792,7.29378351 204.986279,7.10205078 C204.804637,6.91031805 204.557407,6.75390686 204.24458,6.6328125 C203.931753,6.51171814 203.548293,6.45117188 203.094189,6.45117188 C202.751088,6.45117188 202.445834,6.49405882 202.178418,6.57983398 C201.911001,6.66560915 201.686475,6.77156512 201.504834,6.89770508 C201.323192,7.02384503 201.169304,7.20296108 201.043164,7.43505859 C200.917024,7.66715611 200.821159,7.89168186 200.755566,8.10864258 C200.689973,8.3256033 200.639518,8.60562979 200.604199,8.94873047 C200.56888,9.29183114 200.546175,9.59456249 200.536084,9.85693359 C200.525992,10.1193047 200.520947,10.4573547 200.520947,10.8710938 L200.520947,20.9975586 C200.520947,22.511238 200.707631,23.6187302 201.081005,24.3200684 C201.45438,25.0214065 202.165798,25.3720703 203.215283,25.3720703 C203.760207,25.3720703 204.216827,25.2686371 204.585156,25.0617676 C204.953484,24.8548981 205.241079,24.5420757 205.447949,24.123291 C205.654818,23.7045064 205.801138,23.2251817 205.886914,22.6853027 C205.972689,22.1454237 206.015576,21.4920286 206.015576,20.7250977 L206.015576,18.6665039 L203.306103,18.6665039 L203.306103,15.7148438 L210.132763,15.7148438 L210.132763,28.4599609 L207.165966,28.4599609 L206.832959,25.9169922 C206.076119,27.8343195 204.658327,28.7929688 202.579541,28.7929688 Z M219.261084,28.7626953 C214.84114,28.7626953 212.520199,26.2096609 212.298193,21.1035156 L216.27915,20.2709961 C216.380062,23.5909997 217.32862,25.2509766 219.124853,25.2509766 C219.821146,25.2509766 220.338312,25.0390646 220.676367,24.6152344 C221.014422,24.1914041 221.183447,23.6212601 221.183447,22.9047852 C221.183447,22.2084926 221.057309,21.570234 220.805029,20.9899902 C220.552749,20.4097464 220.260109,19.9354673 219.927099,19.5671387 C219.59409,19.19881 219.119811,18.7421902 218.504248,18.1972656 L215.204443,15.3364258 C214.235688,14.4887653 213.514178,13.6083216 213.039892,12.6950684 C212.565606,11.7818151 212.328466,10.6390043 212.328466,9.26660156 C212.328466,7.31900068 212.901133,5.80534394 214.046484,4.72558594 C215.191835,3.64582793 216.763515,3.09586599 218.761572,3.07568359 C219.679871,3.0655924 220.4922,3.17911665 221.198584,3.41625977 C221.904967,3.65340288 222.487725,3.97127079 222.946875,4.36987305 C223.406024,4.7684753 223.789484,5.26545926 224.097265,5.86083984 C224.405047,6.45622042 224.634618,7.07429693 224.785986,7.71508789 C224.937354,8.35587885 225.04331,9.06982028 225.103857,9.85693359 L221.198584,10.6289062 C221.178401,10.1243464 221.145605,9.68538598 221.100195,9.31201172 C221.054784,8.93863746 220.976579,8.56022327 220.865576,8.17675781 C220.754573,7.79329235 220.610775,7.48299272 220.434179,7.24584961 C220.257583,7.0087065 220.020444,6.8194994 219.722753,6.67822266 C219.425063,6.53694591 219.079445,6.48144516 218.685888,6.51171875 C218.009778,6.55208354 217.492612,6.77660928 217.134375,7.18530273 C216.776137,7.59399618 216.597021,8.14143537 216.597021,8.82763672 C216.597021,9.63493242 216.755955,10.2984186 217.073828,10.8181152 C217.3917,11.3378118 217.888684,11.8953421 218.564794,12.4907227 L221.834326,15.3364258 C222.37925,15.8308944 222.853529,16.310219 223.257177,16.7744141 C223.660825,17.2386091 224.046808,17.768389 224.415136,18.3637695 C224.783465,18.9591501 225.063491,19.615068 225.255224,20.331543 C225.446957,21.0480179 225.542822,21.8048463 225.542822,22.6020508 C225.542822,24.4285573 224.96511,25.9119409 223.809668,27.0522461 C222.654226,28.1925513 221.138046,28.7626953 219.261084,28.7626953 Z M239.016259,19.6503906 L242.376611,19.6503906 L240.696435,9.34228516 L239.016259,19.6503906 Z M233.188623,28.4599609 L238.289697,3.36328125 L243.057763,3.36328125 L248.143701,28.4599609 L243.890283,28.4599609 L242.876123,22.6323242 L238.531884,22.6323242 L237.502587,28.4599609 L233.188623,28.4599609 Z M249.960986,28.4599609 L249.960986,3.36328125 L253.109423,3.36328125 L259.254931,17.5766602 L259.254931,3.36328125 L263.039111,3.36328125 L263.039111,28.4599609 L260.042041,28.4599609 L253.835986,13.5200195 L253.835986,28.4599609 L249.960986,28.4599609 Z M266.143017,28.4599609 L266.143017,3.36328125 L271.985791,3.36328125 C273.49947,3.36328125 274.765896,3.51464692 275.785107,3.81738281 C276.804318,4.1201187 277.621693,4.59944333 278.237256,5.25537109 C278.852818,5.91129885 279.289256,6.71605969 279.546582,7.66967773 C279.803907,8.62329578 279.932568,9.79637976 279.932568,11.1889648 L279.932568,20.2407227 C279.932568,21.6736725 279.801384,22.8896434 279.539013,23.8886719 C279.276642,24.8877003 278.84525,25.7353481 278.244824,26.4316406 C277.644398,27.1279332 276.844682,27.6400537 275.845654,27.9680176 C274.846626,28.2959815 273.620564,28.4599609 272.167431,28.4599609 L266.143017,28.4599609 Z M270.714306,25.2509766 L272.016064,25.2509766 C272.470168,25.2509766 272.868764,25.2106124 273.211865,25.1298828 C273.554966,25.0491532 273.84256,24.9532883 274.074658,24.8422852 C274.306755,24.731282 274.501008,24.5496432 274.657422,24.2973633 C274.813835,24.0450834 274.932405,23.8129893 275.013134,23.6010742 C275.093864,23.3891591 275.15441,23.0687684 275.194775,22.6398926 C275.23514,22.2110167 275.260367,21.8452164 275.270459,21.5424805 C275.28055,21.2397446 275.285595,20.7906931 275.285595,20.1953125 L275.285595,11.0224609 C275.285595,10.4270804 275.275504,9.94775572 275.255322,9.58447266 C275.23514,9.22118959 275.187207,8.85538921 275.111523,8.48706055 C275.035839,8.11873188 274.924838,7.83365986 274.778515,7.63183594 C274.632193,7.43001201 274.43794,7.24585044 274.195752,7.0793457 C273.953563,6.91284096 273.650832,6.79679395 273.287548,6.73120117 C272.924265,6.6656084 272.485305,6.6328125 271.970654,6.6328125 L270.714306,6.6328125 L270.714306,25.2509766 Z M294.132568,14.0800781 L295.237549,14.0800781 C296.589769,14.0800781 297.550941,13.7924833 298.121093,13.2172852 C298.691246,12.642087 298.976318,11.6582101 298.976318,10.265625 C298.976318,8.92349589 298.729087,7.96232386 298.234619,7.38208008 C297.74015,6.80183629 296.831956,6.51171875 295.510009,6.51171875 L294.132568,6.51171875 L294.132568,14.0800781 Z M289.561279,28.4599609 L289.561279,3.36328125 L295.313232,3.36328125 C296.635179,3.36328125 297.770421,3.47175998 298.718994,3.6887207 C299.667566,3.90568142 300.492509,4.26895904 301.193847,4.77856445 C301.895186,5.28816987 302.41992,5.97940644 302.768066,6.85229492 C303.116212,7.7251834 303.290283,8.7923114 303.290283,10.0537109 C303.290283,11.6279376 303.055666,12.9145458 302.586425,13.9135742 C302.117185,14.9126027 301.342697,15.6391579 300.262939,16.0932617 L303.744384,28.4599609 L299.157959,28.4599609 L296.160888,17.0014648 L294.132568,17.0014648 L294.132568,28.4599609 L289.561279,28.4599609 Z M312.933252,28.7626953 C310.349905,28.7626953 308.498199,28.0613677 307.378076,26.6586914 C306.257953,25.2560151 305.6979,23.2024875 305.6979,20.4980469 L305.6979,11.234375 C305.6979,9.90233709 305.824038,8.74691245 306.076318,7.76806641 C306.328598,6.78922037 306.734763,5.94157259 307.294824,5.22509766 C307.854885,4.50862272 308.604145,3.97127458 309.542627,3.61303711 C310.481108,3.25479964 311.611305,3.07568359 312.933252,3.07568359 C315.506507,3.07568359 317.355691,3.76692017 318.480859,5.14941406 C319.606027,6.53190795 320.168603,8.56020798 320.168603,11.234375 L320.168603,20.4980469 C320.168603,21.8099024 320.039942,22.9628043 319.782617,23.9567871 C319.525291,24.9507699 319.116604,25.8135543 318.556543,26.545166 C317.996481,27.2767777 317.247221,27.8292625 316.30874,28.2026367 C315.370259,28.576011 314.245107,28.7626953 312.933252,28.7626953 Z M312.933252,25.3720703 C313.377264,25.3720703 313.755679,25.3064785 314.068506,25.175293 C314.381333,25.0441074 314.631086,24.8725597 314.817773,24.6606445 C315.00446,24.4487294 315.15078,24.1712257 315.256738,23.828125 C315.362696,23.4850243 315.433333,23.1419288 315.468652,22.7988281 C315.503971,22.4557275 315.521631,22.0470401 315.521631,21.5727539 L315.521631,10.1748047 C315.521631,9.56933291 315.491357,9.06478066 315.43081,8.66113281 C315.370263,8.25748496 315.251693,7.87654802 315.075097,7.51831055 C314.898501,7.16007308 314.633612,6.89266039 314.28042,6.71606445 C313.927228,6.53946852 313.478176,6.45117188 312.933252,6.45117188 C312.388327,6.45117188 311.936753,6.53946852 311.578515,6.71606445 C311.220278,6.89266039 310.955388,7.16007308 310.783838,7.51831055 C310.612287,7.87654802 310.49624,8.25748496 310.435693,8.66113281 C310.375146,9.06478066 310.344873,9.56933291 310.344873,10.1748047 L310.344873,21.5727539 C310.344873,22.0470401 310.362532,22.4557275 310.397851,22.7988281 C310.43317,23.1419288 310.503808,23.4850243 310.609765,23.828125 C310.715723,24.1712257 310.85952,24.4487294 311.041162,24.6606445 C311.222803,24.8725597 311.472557,25.0441074 311.790429,25.175293 C312.108302,25.3064785 312.489239,25.3720703 312.933252,25.3720703 Z M329.599658,28.7626953 C328.5199,28.7626953 327.566296,28.6264662 326.738818,28.3540039 C325.91134,28.0815416 325.227672,27.7031274 324.687793,27.21875 C324.147914,26.7343726 323.708953,26.1339554 323.370898,25.4174805 C323.032843,24.7010055 322.795704,23.9315634 322.659472,23.1091309 C322.523241,22.2866984 322.455127,21.360845 322.455127,20.331543 L322.455127,11.5825195 C322.455127,10.4926703 322.525764,9.52645278 322.667041,8.68383789 C322.808318,7.841223 323.045457,7.05916702 323.378467,6.33764648 C323.711476,5.61612595 324.147914,5.02327706 324.687793,4.55908203 C325.227672,4.094887 325.908817,3.73160938 326.73125,3.46923828 C327.553682,3.20686718 328.509809,3.07568359 329.599658,3.07568359 C330.850966,3.07568359 331.920617,3.24218583 332.808642,3.57519531 C333.696668,3.90820479 334.397995,4.39762047 334.912646,5.04345703 C335.427297,5.68929359 335.800666,6.4435992 336.032763,7.30639648 C336.264861,8.16919377 336.380908,9.1757755 336.380908,10.3261719 L336.380908,12.4755859 L331.976123,12.4755859 L331.976123,10.3413086 C331.976123,9.09000025 331.910531,8.247398 331.779345,7.81347656 C331.516974,6.96581607 330.876193,6.51171905 329.856982,6.45117188 L329.614795,6.45117188 C329.231329,6.45117188 328.895802,6.49658158 328.608203,6.58740234 C328.320604,6.67822311 328.085987,6.8220205 327.904345,7.01879883 C327.722704,7.21557716 327.576384,7.42496634 327.465381,7.64697266 C327.354377,7.86897897 327.271126,8.15909652 327.215625,8.51733398 C327.160123,8.87557145 327.124805,9.20605317 327.109668,9.50878906 C327.094531,9.81152495 327.086963,10.1949847 327.086963,10.6591797 L327.086963,21.2851562 C327.086963,22.7584709 327.271124,23.8079396 327.639453,24.4335938 C328.007782,25.0592479 328.666222,25.3720703 329.614795,25.3720703 C329.937713,25.3720703 330.222785,25.3342289 330.470019,25.2585449 C330.717254,25.1828609 330.92412,25.086996 331.090625,24.9709473 C331.257129,24.8548985 331.398404,24.6883963 331.514453,24.4714355 C331.630502,24.2544748 331.718798,24.0526539 331.779345,23.8659668 C331.839893,23.6792797 331.885302,23.4194353 331.915576,23.0864258 C331.94585,22.7534163 331.963509,22.470867 331.968554,22.2387695 C331.9736,22.006672 331.976123,21.6888041 331.976123,21.2851562 L331.976123,19.0449219 L336.380908,19.0449219 L336.380908,21.1035156 C336.380908,22.0419969 336.315316,22.8845991 336.184131,23.6313477 C336.052945,24.3780962 335.828419,25.0794238 335.510547,25.7353516 C335.192674,26.3912793 334.781464,26.9361957 334.276904,27.3701172 C333.772344,27.8040386 333.126517,28.1446114 332.339404,28.3918457 C331.552291,28.63908 330.639051,28.7626953 329.599658,28.7626953 Z M338.894482,28.4599609 L338.894482,3.36328125 L343.465771,3.36328125 L343.465771,14.2617188 L348.400342,3.36328125 L352.759717,3.36328125 L347.961377,14.5947266 L353.259228,28.4599609 L348.703076,28.4599609 L344.373974,16.6533203 L343.465771,18.2880859 L343.465771,28.4599609 L338.894482,28.4599609 Z M355.303564,11.9912109 L354.804053,10.5380859 C355.490254,10.5380859 355.96201,10.2832871 356.219336,9.77368164 C356.476661,9.26407623 356.605322,8.44922435 356.605322,7.32910156 L354.682959,7.32910156 L354.682959,3.36328125 L358.83042,3.36328125 C358.83042,5.08887582 358.820329,6.17366314 358.800146,6.61767578 C358.769873,8.43409111 358.492369,9.78376837 357.967627,10.666748 C357.442885,11.5497277 356.554873,11.9912109 355.303564,11.9912109 Z M360.920166,28.4599609 L360.920166,3.36328125 L364.068603,3.36328125 L370.214111,17.5766602 L370.214111,3.36328125 L373.998291,3.36328125 L373.998291,28.4599609 L371.001221,28.4599609 L364.795166,13.5200195 L364.795166,28.4599609 L360.920166,28.4599609 Z M388.591846,14.0800781 L389.696826,14.0800781 C391.049046,14.0800781 392.010218,13.7924833 392.580371,13.2172852 C393.150524,12.642087 393.435596,11.6582101 393.435596,10.265625 C393.435596,8.92349589 393.188365,7.96232386 392.693896,7.38208008 C392.199428,6.80183629 391.291234,6.51171875 389.969287,6.51171875 L388.591846,6.51171875 L388.591846,14.0800781 Z M384.020557,28.4599609 L384.020557,3.36328125 L389.77251,3.36328125 C391.094456,3.36328125 392.229699,3.47175998 393.178271,3.6887207 C394.126844,3.90568142 394.951787,4.26895904 395.653125,4.77856445 C396.354463,5.28816987 396.879197,5.97940644 397.227344,6.85229492 C397.57549,7.7251834 397.74956,8.7923114 397.74956,10.0537109 C397.74956,11.6279376 397.514944,12.9145458 397.045703,13.9135742 C396.576462,14.9126027 395.801975,15.6391579 394.722217,16.0932617 L398.203662,28.4599609 L393.617236,28.4599609 L390.620166,17.0014648 L388.591846,17.0014648 L388.591846,28.4599609 L384.020557,28.4599609 Z M407.392529,28.7626953 C404.809183,28.7626953 402.957476,28.0613677 401.837353,26.6586914 C400.717231,25.2560151 400.157178,23.2024875 400.157178,20.4980469 L400.157178,11.234375 C400.157178,9.90233709 400.283316,8.74691245 400.535596,7.76806641 C400.787876,6.78922037 401.19404,5.94157259 401.754101,5.22509766 C402.314163,4.50862272 403.063423,3.97127458 404.001904,3.61303711 C404.940385,3.25479964 406.070582,3.07568359 407.392529,3.07568359 C409.965784,3.07568359 411.814968,3.76692017 412.940137,5.14941406 C414.065305,6.53190795 414.627881,8.56020798 414.627881,11.234375 L414.627881,20.4980469 C414.627881,21.8099024 414.49922,22.9628043 414.241894,23.9567871 C413.984569,24.9507699 413.575882,25.8135543 413.01582,26.545166 C412.455759,27.2767777 411.706499,27.8292625 410.768017,28.2026367 C409.829536,28.576011 408.704385,28.7626953 407.392529,28.7626953 Z M407.392529,25.3720703 C407.836542,25.3720703 408.214956,25.3064785 408.527783,25.175293 C408.84061,25.0441074 409.090364,24.8725597 409.277051,24.6606445 C409.463738,24.4487294 409.610058,24.1712257 409.716016,23.828125 C409.821973,23.4850243 409.89261,23.1419288 409.92793,22.7988281 C409.963249,22.4557275 409.980908,22.0470401 409.980908,21.5727539 L409.980908,10.1748047 C409.980908,9.56933291 409.950635,9.06478066 409.890088,8.66113281 C409.829541,8.25748496 409.710971,7.87654802 409.534375,7.51831055 C409.357779,7.16007308 409.092889,6.89266039 408.739697,6.71606445 C408.386505,6.53946852 407.937454,6.45117188 407.392529,6.45117188 C406.847605,6.45117188 406.39603,6.53946852 406.037793,6.71606445 C405.679555,6.89266039 405.414665,7.16007308 405.243115,7.51831055 C405.071565,7.87654802 404.955518,8.25748496 404.894971,8.66113281 C404.834423,9.06478066 404.80415,9.56933291 404.80415,10.1748047 L404.80415,21.5727539 C404.80415,22.0470401 404.82181,22.4557275 404.857129,22.7988281 C404.892448,23.1419288 404.963085,23.4850243 405.069043,23.828125 C405.175,24.1712257 405.318798,24.4487294 405.500439,24.6606445 C405.682081,24.8725597 405.931834,25.0441074 406.249707,25.175293 C406.56758,25.3064785 406.948517,25.3720703 407.392529,25.3720703 Z M417.323096,28.4599609 L417.323096,3.36328125 L421.894385,3.36328125 L421.894385,25.2963867 L427.903662,25.2963867 L427.903662,28.4599609 L417.323096,28.4599609 Z M429.675537,28.4599609 L429.675537,3.36328125 L434.246826,3.36328125 L434.246826,25.2963867 L440.256103,25.2963867 L440.256103,28.4599609 L429.675537,28.4599609 Z M441.573877,28.4599609 L441.573877,24.2670898 L445.691064,24.2670898 L445.691064,28.4599609 L441.573877,28.4599609 Z M464.569189,28.4599609 L460.981787,3.36328125 L464.826514,3.36328125 L466.885107,19.5444336 L469.564307,3.36328125 L472.637061,3.36328125 L475.376807,19.5595703 L477.4354,3.36328125 L481.204443,3.36328125 L477.617041,28.4599609 L473.969092,28.4599609 L471.138525,11.7036133 L468.323096,28.4599609 L464.569189,28.4599609 Z M483.490967,28.4599609 L483.490967,3.36328125 L488.062256,3.36328125 L488.062256,13.8530273 L493.16333,13.8530273 L493.16333,3.36328125 L497.734619,3.36328125 L497.734619,28.4599609 L493.16333,28.4599609 L493.16333,17.1074219 L488.062256,17.1074219 L488.062256,28.4599609 L483.490967,28.4599609 Z M505.409815,19.6503906 L508.770166,19.6503906 L507.08999,9.34228516 L505.409815,19.6503906 Z M499.582178,28.4599609 L504.683252,3.36328125 L509.451318,3.36328125 L514.537256,28.4599609 L510.283838,28.4599609 L509.269678,22.6323242 L504.92544,22.6323242 L503.896143,28.4599609 L499.582178,28.4599609 Z M517.92876,28.4599609 L517.92876,6.73876953 L513.720752,6.73876953 L513.720752,3.36328125 L526.571826,3.36328125 L526.571826,6.73876953 L522.500049,6.73876953 L522.500049,28.4599609 L517.92876,28.4599609 Z M534.792822,28.4599609 L535.201514,3.36328125 L539.893897,3.36328125 L543.526709,20.9975586 L547.265479,3.36328125 L551.851904,3.36328125 L552.275733,28.4599609 L548.824561,28.4599609 L548.521826,11.1738281 L544.904151,28.4599609 L542.224951,28.4599609 L538.561865,11.1132812 L538.289404,28.4599609 L534.792822,28.4599609 Z M562.160889,28.7626953 C559.577543,28.7626953 557.725836,28.0613677 556.605713,26.6586914 C555.48559,25.2560151 554.925537,23.2024875 554.925537,20.4980469 L554.925537,11.234375 C554.925537,9.90233709 555.051675,8.74691245 555.303955,7.76806641 C555.556235,6.78922037 555.9624,5.94157259 556.522461,5.22509766 C557.082523,4.50862272 557.831783,3.97127458 558.770264,3.61303711 C559.708745,3.25479964 560.838942,3.07568359 562.160889,3.07568359 C564.734144,3.07568359 566.583328,3.76692017 567.708496,5.14941406 C568.833665,6.53190795 569.39624,8.56020798 569.39624,11.234375 L569.39624,20.4980469 C569.39624,21.8099024 569.26758,22.9628043 569.010254,23.9567871 C568.752929,24.9507699 568.344241,25.8135543 567.78418,26.545166 C567.224118,27.2767777 566.474858,27.8292625 565.536377,28.2026367 C564.597896,28.576011 563.472744,28.7626953 562.160889,28.7626953 Z M562.160889,25.3720703 C562.604901,25.3720703 562.983316,25.3064785 563.296143,25.175293 C563.60897,25.0441074 563.858723,24.8725597 564.04541,24.6606445 C564.232097,24.4487294 564.378418,24.1712257 564.484375,23.828125 C564.590333,23.4850243 564.66097,23.1419288 564.696289,22.7988281 C564.731608,22.4557275 564.749268,22.0470401 564.749268,21.5727539 L564.749268,10.1748047 C564.749268,9.56933291 564.718995,9.06478066 564.658447,8.66113281 C564.5979,8.25748496 564.47933,7.87654802 564.302735,7.51831055 C564.126139,7.16007308 563.861249,6.89266039 563.508057,6.71606445 C563.154865,6.53946852 562.705813,6.45117188 562.160889,6.45117188 C561.615964,6.45117188 561.16439,6.53946852 560.806153,6.71606445 C560.447915,6.89266039 560.183025,7.16007308 560.011475,7.51831055 C559.839924,7.87654802 559.723877,8.25748496 559.66333,8.66113281 C559.602783,9.06478066 559.57251,9.56933291 559.57251,10.1748047 L559.57251,21.5727539 C559.57251,22.0470401 559.590169,22.4557275 559.625488,22.7988281 C559.660808,23.1419288 559.731445,23.4850243 559.837403,23.828125 C559.94336,24.1712257 560.087157,24.4487294 560.268799,24.6606445 C560.450441,24.8725597 560.700194,25.0441074 561.018067,25.175293 C561.335939,25.3064785 561.716876,25.3720703 562.160889,25.3720703 Z M576.662744,14.0800781 L577.767725,14.0800781 C579.119945,14.0800781 580.081117,13.7924833 580.65127,13.2172852 C581.221422,12.642087 581.506494,11.6582101 581.506494,10.265625 C581.506494,8.92349589 581.259264,7.96232386 580.764795,7.38208008 C580.270327,6.80183629 579.362132,6.51171875 578.040186,6.51171875 L576.662744,6.51171875 L576.662744,14.0800781 Z M572.091455,28.4599609 L572.091455,3.36328125 L577.843408,3.36328125 C579.165355,3.36328125 580.300598,3.47175998 581.24917,3.6887207 C582.197743,3.90568142 583.022685,4.26895904 583.724024,4.77856445 C584.425362,5.28816987 584.950096,5.97940644 585.298242,6.85229492 C585.646389,7.7251834 585.820459,8.7923114 585.820459,10.0537109 C585.820459,11.6279376 585.585842,12.9145458 585.116602,13.9135742 C584.647361,14.9126027 583.872873,15.6391579 582.793115,16.0932617 L586.274561,28.4599609 L581.688135,28.4599609 L578.691065,17.0014648 L576.662744,17.0014648 L576.662744,28.4599609 L572.091455,28.4599609 Z M588.636768,28.4599609 L588.636768,3.36328125 L599.141651,3.36328125 L599.141651,6.58740234 L593.208057,6.58740234 L593.208057,13.7924805 L597.90044,13.7924805 L597.90044,17.0166016 L593.208057,17.0166016 L593.208057,25.2963867 L599.217334,25.2963867 L599.217334,28.4599609 L588.636768,28.4599609 Z M608.119483,28.4599609 L608.119483,3.36328125 L613.962256,3.36328125 C615.475936,3.36328125 616.742362,3.51464692 617.761573,3.81738281 C618.780783,4.1201187 619.598158,4.59944333 620.213721,5.25537109 C620.829284,5.91129885 621.265722,6.71605969 621.523047,7.66967773 C621.780373,8.62329578 621.909033,9.79637976 621.909033,11.1889648 L621.909033,20.2407227 C621.909033,21.6736725 621.77785,22.8896434 621.515479,23.8886719 C621.253108,24.8877003 620.821716,25.7353481 620.221289,26.4316406 C619.620863,27.1279332 618.821148,27.6400537 617.822119,27.9680176 C616.823091,28.2959815 615.597029,28.4599609 614.143897,28.4599609 L608.119483,28.4599609 Z M612.690772,25.2509766 L613.99253,25.2509766 C614.446633,25.2509766 614.84523,25.2106124 615.18833,25.1298828 C615.531431,25.0491532 615.819026,24.9532883 616.051123,24.8422852 C616.283221,24.731282 616.477473,24.5496432 616.633887,24.2973633 C616.790301,24.0450834 616.90887,23.8129893 616.9896,23.6010742 C617.070329,23.3891591 617.130876,23.0687684 617.171241,22.6398926 C617.211605,22.2110167 617.236833,21.8452164 617.246924,21.5424805 C617.257015,21.2397446 617.262061,20.7906931 617.262061,20.1953125 L617.262061,11.0224609 C617.262061,10.4270804 617.25197,9.94775572 617.231787,9.58447266 C617.211605,9.22118959 617.163673,8.85538921 617.087989,8.48706055 C617.012305,8.11873188 616.901303,7.83365986 616.754981,7.63183594 C616.608658,7.43001201 616.414406,7.24585044 616.172217,7.0793457 C615.930028,6.91284096 615.627297,6.79679395 615.264014,6.73120117 C614.900731,6.6656084 614.46177,6.6328125 613.947119,6.6328125 L612.690772,6.6328125 L612.690772,25.2509766 Z M625.255127,11.9912109 L624.755616,10.5380859 C625.441817,10.5380859 625.913573,10.2832871 626.170899,9.77368164 C626.428224,9.26407623 626.556885,8.44922435 626.556885,7.32910156 L624.634522,7.32910156 L624.634522,3.36328125 L628.781983,3.36328125 C628.781983,5.08887582 628.771892,6.17366314 628.751709,6.61767578 C628.721436,8.43409111 628.443932,9.78376837 627.91919,10.666748 C627.394448,11.5497277 626.506436,11.9912109 625.255127,11.9912109 Z M634.398584,28.4599609 L634.398584,18.9086914 L629.282373,3.36328125 L633.550928,3.36328125 L636.653955,13.3535156 L639.620752,3.36328125 L643.843897,3.36328125 L638.757959,18.9086914 L638.757959,28.4599609 L634.398584,28.4599609 Z M649.339405,19.6503906 L652.699756,19.6503906 L651.01958,9.34228516 L649.339405,19.6503906 Z M643.511768,28.4599609 L648.612842,3.36328125 L653.380909,3.36328125 L658.466846,28.4599609 L654.213428,28.4599609 L653.199268,22.6323242 L648.85503,22.6323242 L647.825733,28.4599609 L643.511768,28.4599609 Z M669.9271,28.4599609 L666.339698,3.36328125 L670.184424,3.36328125 L672.243018,19.5444336 L674.922217,3.36328125 L677.994971,3.36328125 L680.734717,19.5595703 L682.793311,3.36328125 L686.562354,3.36328125 L682.974952,28.4599609 L679.327002,28.4599609 L676.496436,11.7036133 L673.681006,28.4599609 L669.9271,28.4599609 Z M692.542237,19.6503906 L695.902588,19.6503906 L694.222413,9.34228516 L692.542237,19.6503906 Z M686.7146,28.4599609 L691.815674,3.36328125 L696.583741,3.36328125 L701.669678,28.4599609 L697.41626,28.4599609 L696.4021,22.6323242 L692.057862,22.6323242 L691.028565,28.4599609 L686.7146,28.4599609 Z M703.486963,28.4599609 L703.486963,3.36328125 L706.635401,3.36328125 L712.780909,17.5766602 L712.780909,3.36328125 L716.565088,3.36328125 L716.565088,28.4599609 L713.568018,28.4599609 L707.361963,13.5200195 L707.361963,28.4599609 L703.486963,28.4599609 Z M722.121143,28.4599609 L722.121143,6.73876953 L717.913135,6.73876953 L717.913135,3.36328125 L730.764209,3.36328125 L730.764209,6.73876953 L726.692432,6.73876953 L726.692432,28.4599609 L722.121143,28.4599609 Z M734.609815,28.4599609 L734.609815,24.3276367 L738.787549,24.3276367 L738.787549,28.4599609 L734.609815,28.4599609 Z M734.761182,22.0268555 L734.761182,18.1064453 C735.528113,17.420244 736.194122,16.7744171 736.759229,16.1689453 C737.324336,15.5634735 737.876821,14.882328 738.4167,14.1254883 C738.956579,13.3686486 739.365266,12.5790243 739.642774,11.7565918 C739.920282,10.9341593 740.048943,10.0991253 740.02876,9.25146484 C740.008578,8.45426034 739.779007,7.82609279 739.34004,7.36694336 C738.901073,6.90779393 738.338497,6.67822266 737.652295,6.67822266 C736.956003,6.67822266 736.431269,6.89770288 736.078077,7.33666992 C735.724885,7.77563696 735.588656,8.35334928 735.669385,9.06982422 C735.669385,9.52392805 735.745068,9.96793403 735.896436,10.4018555 L732.006299,11.1889648 C731.804475,10.321122 731.703565,9.74088688 731.703565,9.44824219 C731.431103,7.5208237 731.819608,5.96428002 732.869092,4.77856445 C733.918577,3.59284889 735.497825,3 737.606885,3 C739.726036,3 741.35574,3.56005299 742.496045,4.68017578 C743.636351,5.80029857 744.206495,7.37450158 744.206495,9.40283203 C744.206495,10.3614957 744.057652,11.2923946 743.759961,12.1955566 C743.462271,13.0987187 743.028356,13.9589803 742.458204,14.7763672 C741.888051,15.5937541 741.305293,16.3228321 740.709913,16.963623 C740.114532,17.604414 739.403113,18.2981733 738.575635,19.0449219 L738.575635,22.0268555 L734.761182,22.0268555 Z M747.461768,22.6474609 L746.175147,3.39355469 L750.398292,3.39355469 L748.945167,22.6474609 L747.461768,22.6474609 Z M746.144874,28.4599609 L746.144874,24.3730469 L750.246924,24.3730469 L750.246924,28.4599609 L746.144874,28.4599609 Z" id="Dogs-and-rock’n-roll-Copy"></path>
                            <polygon id="Shape" fill-rule="nonzero" points="810 0 814.017406 7.8996259 823 9.16696403 816.5 15.3164892 818.0341 24 810 19.8996259 801.9659 24 803.5 15.3164892 797 9.16696403 805.982594 7.8996259"></polygon>
                            <polygon id="Shape-Copy" fill-rule="nonzero" points="854 0 858.017406 7.8996259 867 9.16696403 860.5 15.3164892 862.0341 24 854 19.8996259 845.9659 24 847.5 15.3164892 841 9.16696403 849.982594 7.8996259"></polygon>
                            <polygon id="Shape-Copy" fill-rule="nonzero" points="898 0 902.017406 7.8996259 911 9.16696403 904.5 15.3164892 906.0341 24 898 19.8996259 889.9659 24 891.5 15.3164892 885 9.16696403 893.982594 7.8996259"></polygon>
                            <g id="Group-11" transform="translate(0.000000, 2.000000)" fill-rule="nonzero">
                                <polygon id="Shape" points="12.5 1 16.36289 8.57047482 25 9.78500719 18.75 15.6783022 20.2250958 24 12.5 20.0704748 4.77490421 24 6.25 15.6783022 0 9.78500719 8.63711002 8.57047482"></polygon>
                                <polygon id="Shape" points="59 0 63.0174056 7.8996259 72 9.16696403 65.5 15.3164892 67.0340996 24 59 19.8996259 50.9659004 24 52.5 15.3164892 46 9.16696403 54.9825944 7.8996259"></polygon>
                                <polygon id="Shape-Copy" points="106 0 110.017406 7.8996259 119 9.16696403 112.5 15.3164892 114.0341 24 106 19.8996259 97.9659004 24 99.5 15.3164892 93 9.16696403 101.982594 7.8996259"></polygon>
                            </g>
                        </g>
                    </g>
                </g>
            </g>
        </g>
    </g>
</svg>