<?xml version="1.0" encoding="UTF-8"?>
<svg width="56px" height="34px" viewBox="0 0 56 34" version="1.1" xmlns="http://www.w3.org/2000/svg" xmlns:xlink="http://www.w3.org/1999/xlink">
    <!-- Generator: Sketch 50 (54983) - http://www.bohemiancoding.com/sketch -->
    <title>Group 5</title>
    <desc>Created with Sketch.</desc>
    <defs></defs>
    <g id="Page-1" stroke="none" stroke-width="1" fill="none" fill-rule="evenodd">
        <g id="kit-james-snippets-freebies-02" transform="translate(-538.000000, -2751.000000)">
            <g id="Group-20" transform="translate(0.000000, 555.000000)">
                <g id="footer" transform="translate(0.000000, 2134.000000)">
                    <g id="all-book-cta">
                        <g id="Group-12" transform="translate(538.000000, 62.000000)">
                            <g id="Group-5">
                                <path d="M27.5667956,33.3108108 C9.65725604,33.3108108 0,16.6569437 0,16.6569437 C0,16.6569437 9.65725604,0 27.5667956,0 C45.4778791,0 55.1351351,16.6569437 55.1351351,16.6569437 C55.1351351,16.6569437 45.4778791,33.3108108 27.5667956,33.3108108 Z" id="Path" fill="#FFFFFF"></path>
                                <path d="M27.3581081,3 C19.4403082,3 13,9.4422124 13,17.3588858 C13,25.2755592 19.4418635,31.7162162 27.3581081,31.7162162 C35.2743527,31.7162162 41.7162162,25.2740038 41.7162162,17.3588858 C41.7162162,9.4422124 35.275908,3 27.3581081,3 Z M27.3581081,27.1216216 C21.9734489,27.1216216 17.5945946,22.7408491 17.5945946,17.3588915 C17.5945946,11.9738003 21.9750156,7.59459459 27.3581081,7.59459459 C32.7412006,7.59459459 37.1216216,11.9753671 37.1216216,17.3588915 C37.1216216,22.7408491 32.7427673,27.1216216 27.3581081,27.1216216 Z" id="Shape" fill="#000000" fill-rule="nonzero"></path>
                                <path d="M31.4145167,17.4707525 C29.5297514,17.4707525 28.0023094,15.9434805 28.0023094,14.0558581 C28.0023094,12.3645116 29.2429726,10.9660456 30.8654963,10.7007664 C29.9622199,10.2652792 28.9623281,10 27.8918919,10 C24.0886227,10 21,13.0928793 21,16.8926586 C21,20.7001049 24.0886227,23.7837838 27.8918919,23.7837838 C31.6966947,23.7837838 34.7837838,20.7001049 34.7837838,16.8926586 C34.7837838,16.3436994 34.7025042,15.8162078 34.5813517,15.3040503 C34.0829394,16.5721768 32.8560784,17.4707525 31.4145167,17.4707525 Z" id="Shape" fill="#000000" fill-rule="nonzero"></path>
                            </g>
                        </g>
                    </g>
                </g>
            </g>
        </g>
    </g>
</svg>