<?xml version="1.0" encoding="UTF-8"?>
<svg width="570px" height="71px" viewBox="0 0 570 71" version="1.1" xmlns="http://www.w3.org/2000/svg" xmlns:xlink="http://www.w3.org/1999/xlink">
    <!-- Generator: Sketch 50 (54983) - http://www.bohemiancoding.com/sketch -->
    <title>Mask</title>
    <desc>Created with Sketch.</desc>
    <defs>
        <filter x="-0.2%" y="-1.4%" width="100.6%" height="105.8%" filterUnits="objectBoundingBox" id="filter-1">
            <feOffset dx="1.5" dy="2" in="SourceAlpha" result="shadowOffsetOuter1"></feOffset>
            <feColorMatrix values="0 0 0 0 0   0 0 0 0 0   0 0 0 0 0  0 0 0 1 0" type="matrix" in="shadowOffsetOuter1" result="shadowMatrixOuter1"></feColorMatrix>
            <feMerge>
                <feMergeNode in="shadowMatrixOuter1"></feMergeNode>
                <feMergeNode in="SourceGraphic"></feMergeNode>
            </feMerge>
        </filter>
        <path d="M29.5259784,1.07362781 L29.5259784,23.1902397 C31.8831958,23.0167753 34.0032224,22.4241138 35.8861217,21.4122376 C37.7690211,20.4003614 39.3644309,18.9620733 40.6723991,17.09733 C41.9803674,15.2325867 42.9864817,12.963127 43.6907723,10.2888828 C44.3950629,7.61463856 44.7472029,4.54291761 44.7472029,1.07362781 L74.4134988,1.07362781 C74.4134988,9.13972661 73.3642653,15.7746438 71.2657669,20.9785786 C69.1960149,26.211424 65.9189569,30.5624264 61.4344944,34.0317162 C65.8039706,37.4142737 69.2463189,41.8158692 71.7616424,47.2366345 C74.276966,52.6573998 75.7789509,59.3284549 76.2676423,67.25 L44.8334421,67.25 C44.1147782,51.4936421 39.0123414,43.4421195 29.5259784,43.0951905 L29.5259784,67.25 L0.420237411,67.25 L0.420237411,1.07362781 L29.5259784,1.07362781 Z M113.264273,1.07362781 L113.264273,67.25 L84.1585321,67.25 L84.1585321,1.07362781 L113.264273,1.07362781 Z M179.88408,1.07362781 L179.88408,30.3889801 L165.223411,30.3889801 L165.223411,67.25 L136.07455,67.25 L136.07455,30.3889801 L121.413881,30.3889801 L121.413881,1.07362781 L179.88408,1.07362781 Z M255.559007,1.07362781 L255.559007,41.5340179 C255.559007,50.0337779 255.041576,55.7291099 254.0067,58.6201848 C252.971824,61.5401703 250.88773,63.8819058 247.754356,65.6454615 C244.592235,67.4379279 240.840866,68.3341476 236.500136,68.3341476 C230.549599,68.3341476 225.24594,66.8597216 220.588998,63.9108253 C215.960803,60.9330182 212.870594,56.9289396 211.31828,51.8984694 C213.043074,52.2453983 215.127168,52.4188602 217.570625,52.4188602 C221.106451,52.4188602 223.44926,51.9273849 224.599122,50.9444194 C225.806477,49.961454 226.410146,47.7209046 226.410146,44.222704 L226.410146,1.07362781 L255.559007,1.07362781 Z M325.067828,1.07362781 L347.921224,67.25 L318.815484,67.25 L315.020957,56.0615963 L293.633628,56.0615963 L289.839101,67.25 L260.690241,67.25 L283.543637,1.07362781 L325.067828,1.07362781 Z M298.93734,40.4498702 L309.717245,40.4498702 L304.413532,24.2743874 L304.241053,24.2743874 L298.93734,40.4498702 Z M382.589396,1.07362781 L394.49041,14.8639858 L406.434544,1.07362781 L434.677892,1.07362781 L434.677892,67.25 L405.529032,67.25 L405.529032,34.118448 L394.49041,46.9113902 L383.451788,34.118448 L383.451788,67.25 L354.302928,67.25 L354.302928,1.07362781 L382.589396,1.07362781 Z M502.030733,1.07362781 L502.030733,17.6827697 L476.50392,17.6827697 L476.50392,25.8789259 L494.269202,25.8789259 L494.269202,42.4880678 L476.50392,42.4880678 L476.50392,50.6408581 L502.030733,50.6408581 L502.030733,67.25 L447.398179,67.25 L447.398179,1.07362781 L502.030733,1.07362781 Z M539.717277,0.0328460693 C541.959509,0.0328460693 544.230452,0.14125975 546.530177,0.358090363 C548.829901,0.574920976 551.201456,0.885706859 553.644913,1.29045734 C556.088371,1.69520781 558.344941,2.15777285 560.414693,2.67816632 C562.484445,3.19855979 564.381689,3.79122124 566.106483,4.45616846 L558.862387,25.3151691 C556.591409,22.2506298 554.06175,19.8727564 551.273335,18.1814776 C548.484919,16.4901988 545.567187,15.6445721 542.520052,15.6445721 C540.70902,15.6445721 539.401071,16.0131787 538.596167,16.7504027 C537.791264,17.4876268 537.388818,18.4055293 537.388818,19.5041378 C537.388818,20.5449247 538.17215,21.5423306 539.738837,22.4963853 C541.305524,23.45044 543.727385,24.5490319 547.004493,25.7921941 C555.542219,28.9434657 561.061475,32.0802348 563.562425,35.2025956 C566.005882,38.267135 567.227593,42.0543862 567.227593,46.564463 C567.227593,53.5897748 564.575763,58.9743209 559.272023,62.7182628 C553.968284,66.4622048 546.070287,68.3341476 535.577794,68.3341476 C530.115949,68.3341476 524.927274,67.9583136 520.011613,67.2066341 C515.095952,66.4549546 510.266603,65.1684456 505.523422,63.3470685 L512.638158,41.2304565 C514.650417,44.4106389 517.194449,46.9692017 520.27033,48.9062219 C523.317465,50.843242 526.263943,51.8117375 529.109852,51.8117375 C530.518433,51.8117375 531.689838,51.4575862 532.624101,50.7492729 C533.558364,50.0409595 534.025488,49.1519673 534.025488,48.0822697 C534.025488,46.8101967 533.371514,45.7043772 532.063546,44.7647779 C530.755577,43.8251785 528.721789,42.8205451 525.96212,41.7508474 C519.177933,39.1777908 514.521061,36.3879454 511.991364,33.3812276 C509.490414,30.345599 508.239958,26.6306236 508.239958,22.2361898 C508.239958,14.863949 510.884601,9.32039613 516.173967,5.60536496 C521.463333,1.89033379 529.311025,0.0328460693 539.717277,0.0328460693 Z" id="path-2"></path>
    </defs>
    <g id="Page-1" stroke="none" stroke-width="1" fill="none" fill-rule="evenodd">
        <g id="kit-james-home-03-copy-2" transform="translate(-437.000000, -346.000000)">
            <g id="Group-18" transform="translate(-30.000000, -178.000000)">
                <g id="Logo" filter="url(#filter-1)" transform="translate(467.000000, 524.000000)">
                    <mask id="mask-3" fill="white">
                        <use xlink:href="#path-2"></use>
                    </mask>
                    <use id="Mask" fill="#FFFFFF" xlink:href="#path-2"></use>
                </g>
            </g>
        </g>
    </g>
</svg>