<?xml version="1.0" encoding="UTF-8"?>
<svg width="48px" height="41px" viewBox="0 0 48 41" version="1.1" xmlns="http://www.w3.org/2000/svg" xmlns:xlink="http://www.w3.org/1999/xlink">
    <!-- Generator: Sketch 50 (54983) - http://www.bohemiancoding.com/sketch -->
    <title>“</title>
    <desc>Created with Sketch.</desc>
    <defs></defs>
    <g id="Page-1" stroke="none" stroke-width="1" fill="none" fill-rule="evenodd">
        <g id="kit-james-single-03-copy" transform="translate(-635.000000, -639.000000)" fill="#50CBC1">
            <g id="Group-3" transform="translate(0.000000, 379.000000)">
                <g id="Group">
                    <g id="Group-11">
                        <g id="Group-8" transform="translate(0.000000, 128.000000)">
                            <g id="Group-15">
                                <g id="Group-16">
                                    <g id="Group-17">
                                        <g id="Group-23">
                                            <g id="Group-10" transform="translate(135.000000, 0.000000)">
                                                <path d="M500,173 C500,165.817482 500.049689,160.630186 500.149068,157.437956 C500.347827,148.858838 501.63974,142.499412 504.024845,138.359489 C506.40995,134.219566 510.583821,132.099757 516.546584,132 L518.931677,138.733577 C515.552778,138.933091 513.267087,140.229915 512.074534,142.624088 C510.881982,145.01826 510.285714,148.759099 510.285714,153.846715 L519.52795,153.846715 L519.52795,173 L500,173 Z M528.47205,173 C528.47205,165.817482 528.521739,160.630186 528.621118,157.437956 C528.819877,148.858838 530.111789,142.499412 532.496894,138.359489 C534.882,134.219566 539.055871,132.099757 545.018634,132 L547.403727,138.733577 C544.024828,138.933091 541.739136,140.229915 540.546584,142.624088 C539.354031,145.01826 538.757764,148.759099 538.757764,153.846715 L548,153.846715 L548,173 L528.47205,173 Z" id="“"></path>
                                            </g>
                                        </g>
                                    </g>
                                </g>
                            </g>
                        </g>
                    </g>
                </g>
            </g>
        </g>
    </g>
</svg>