<?xml version="1.0" encoding="UTF-8"?>
<svg width="170px" height="170px" viewBox="0 0 170 170" version="1.1" xmlns="http://www.w3.org/2000/svg" xmlns:xlink="http://www.w3.org/1999/xlink">
    <!-- Generator: Sketch 50 (54983) - http://www.bohemiancoding.com/sketch -->
    <title>if_eye-circle_353411</title>
    <desc>Created with Sketch.</desc>
    <defs></defs>
    <g id="Page-1" stroke="none" stroke-width="1" fill="none" fill-rule="evenodd">
        <g id="kit-james-books-01" transform="translate(-136.000000, -727.000000)">
            <g id="Group-20" transform="translate(1.000000, 515.000000)">
                <g id="Group-19" transform="translate(135.000000, 0.000000)">
                    <g id="if_eye-circle_353411" transform="translate(0.000000, 212.000000)">
                        <path d="M84.9980106,0.574324324 C38.4477598,0.574324324 0.575735441,38.4497493 0.575735441,85 C0.575735441,131.550251 38.4477598,169.425676 84.9980106,169.425676 C131.548261,169.425676 169.420286,131.550251 169.420286,85 C169.420286,38.4497493 131.548261,0.574324324 84.9980106,0.574324324 Z" id="Shape" fill="#FF5EBD" fill-rule="nonzero"></path>
                        <path d="M84.4263148,64.8986486 C66.5167753,64.8986486 56.8595192,48.2447816 56.8595192,48.2447816 C56.8595192,48.2447816 66.5167753,31.5878378 84.4263148,31.5878378 C102.337398,31.5878378 111.994654,48.2447816 111.994654,48.2447816 C111.994654,48.2447816 102.337398,64.8986486 84.4263148,64.8986486 Z" id="Path" fill="#EFEEDE"></path>
                        <path d="M84.4256757,34.4594595 C76.5078758,34.4594595 70.0675676,40.9016719 70.0675676,48.8183452 C70.0675676,56.7350186 76.5094311,63.1756757 84.4256757,63.1756757 C92.3419203,63.1756757 98.7837838,56.7334633 98.7837838,48.8183452 C98.7837838,40.9016719 92.3434755,34.4594595 84.4256757,34.4594595 Z M84.4256757,58.5810811 C79.0410165,58.5810811 74.6621622,54.2003086 74.6621622,48.818351 C74.6621622,43.4332597 79.0425832,39.0540541 84.4256757,39.0540541 C89.8087682,39.0540541 94.1891892,43.4348265 94.1891892,48.818351 C94.1891892,54.2003086 89.8103348,58.5810811 84.4256757,58.5810811 Z" id="Shape" fill="#000000" fill-rule="nonzero"></path>
                        <path d="M88.5226248,48.8221039 C86.6378595,48.8221039 85.1104175,47.2948318 85.1104175,45.4072094 C85.1104175,43.7158629 86.3510807,42.3173969 87.9736044,42.0521178 C87.070328,41.6166305 86.0704363,41.3513514 85,41.3513514 C81.1967308,41.3513514 78.1081081,44.4442306 78.1081081,48.2440099 C78.1081081,52.0514563 81.1967308,55.1351351 85,55.1351351 C88.8048028,55.1351351 91.8918919,52.0514563 91.8918919,48.2440099 C91.8918919,47.6950507 91.8106123,47.1675591 91.6894598,46.6554016 C91.1910475,47.9235282 89.9641865,48.8221039 88.5226248,48.8221039 Z" id="Shape" fill="#000000" fill-rule="nonzero"></path>
                        <path d="M53.2928543,101.651816 C49.3006468,101.651816 47.2043136,99.3458494 47.0037918,94.7338471 L50.5994949,93.981894 C50.6906412,96.9806069 51.5474034,98.4799409 53.1698074,98.4799409 C53.7987168,98.4799409 54.2658345,98.2885365 54.5711746,97.9057221 C54.8765146,97.5229077 55.0291824,97.0079389 55.0291824,96.3608003 C55.0291824,95.7318909 54.9152512,95.1553992 54.6873855,94.6313081 C54.4595198,94.1072169 54.1951995,93.6788358 53.8944168,93.3461518 C53.593634,93.0134679 53.1652529,92.6010371 52.6092605,92.1088471 L49.6287918,89.5248628 C48.7537874,88.7592339 48.1021012,87.9639945 47.6737136,87.1391206 C47.2453261,86.3142466 47.0311355,85.2820304 47.0311355,84.0424409 C47.0311355,82.2833175 47.5483829,80.9161437 48.5828933,79.9408784 C49.6174037,78.9656131 51.0369859,78.4688733 52.8416824,78.450644 C53.6711136,78.4415294 54.4048302,78.5440674 55.0428543,78.7582612 C55.6808783,78.972455 56.2072402,79.2595615 56.6219558,79.6195893 C57.0366714,79.9796172 57.3830221,80.4285059 57.6610183,80.966269 C57.9390145,81.5040321 58.1463692,82.0622948 58.2830886,82.6410737 C58.4198081,83.2198526 58.5155102,83.8647029 58.570198,84.575644 L55.0428543,85.2729096 C55.024625,84.8171782 54.9950029,84.4206978 54.9539871,84.0834565 C54.9129712,83.7462152 54.8423339,83.4044218 54.742073,83.0580659 C54.6418121,82.71171 54.5119306,82.4314393 54.3524246,82.2172456 C54.1929186,82.0030518 53.978728,81.8321551 53.7098464,81.7045503 C53.4409649,81.5769454 53.1287935,81.5268157 52.773323,81.5541596 C52.1626429,81.5906181 51.6955251,81.7934156 51.3719558,82.1625581 C51.0483865,82.5317005 50.8866043,83.0261617 50.8866043,83.6459565 C50.8866043,84.3751268 51.0301575,84.9744047 51.3172683,85.4438081 C51.6043791,85.9132115 52.0532679,86.4167871 52.663948,86.9545503 L55.617073,89.5248628 C56.109263,89.9714796 56.5376441,90.4044179 56.9022293,90.8236909 C57.2668144,91.2429638 57.6154437,91.7214746 57.9481277,92.2592378 C58.2808117,92.7970009 58.5337388,93.3894429 58.7069168,94.0365815 C58.8800947,94.6837202 58.9666824,95.3673071 58.9666824,96.0873628 C58.9666824,97.7371106 58.4448777,99.0769409 57.4012527,100.106894 C56.3576277,101.136847 54.9881752,101.651816 53.2928543,101.651816 Z M60.803271,101.378378 L60.803271,78.7104096 L70.2915522,78.7104096 L70.2915522,81.622519 L64.9321772,81.622519 L64.9321772,88.1303315 L69.1704585,88.1303315 L69.1704585,91.0424409 L64.9321772,91.0424409 L64.9321772,98.5209565 L70.3599116,98.5209565 L70.3599116,101.378378 L60.803271,101.378378 Z M72.1554845,101.378378 L72.1554845,78.7104096 L81.6437658,78.7104096 L81.6437658,81.622519 L76.2843908,81.622519 L76.2843908,88.1303315 L80.522672,88.1303315 L80.522672,91.0424409 L76.2843908,91.0424409 L76.2843908,98.5209565 L81.7121252,98.5209565 L81.7121252,101.378378 L72.1554845,101.378378 Z M91.9751461,101.378378 L91.9751461,81.7592378 L88.1743648,81.7592378 L88.1743648,78.7104096 L99.7817867,78.7104096 L99.7817867,81.7592378 L96.1040523,81.7592378 L96.1040523,101.378378 L91.9751461,101.378378 Z M101.044157,101.378378 L101.044157,78.7104096 L105.173063,78.7104096 L105.173063,88.185019 L109.780485,88.185019 L109.780485,78.7104096 L113.909391,78.7104096 L113.909391,101.378378 L109.780485,101.378378 L109.780485,91.1244721 L105.173063,91.1244721 L105.173063,101.378378 L101.044157,101.378378 Z M116.757698,101.378378 L116.757698,78.7104096 L126.245979,78.7104096 L126.245979,81.622519 L120.886604,81.622519 L120.886604,88.1303315 L125.124886,88.1303315 L125.124886,91.0424409 L120.886604,91.0424409 L120.886604,98.5209565 L126.314339,98.5209565 L126.314339,101.378378 L116.757698,101.378378 Z M62.2274246,115.952597 L63.5125809,115.952597 C64.7248265,115.952597 65.5588026,115.692834 66.014534,115.1733 C66.4702654,114.653766 66.6981277,113.778775 66.6981277,112.5483 C66.6981277,111.910276 66.6229332,111.393029 66.4725418,110.996542 C66.3221504,110.600056 66.0692233,110.301556 65.7137527,110.101035 C65.3582822,109.900513 64.9640804,109.768353 64.5311356,109.70455 C64.0981907,109.640748 63.5216991,109.608847 62.8016434,109.608847 L62.2274246,109.608847 L62.2274246,115.952597 Z M62.2274246,126.466269 L63.7450027,126.466269 C64.9754777,126.466269 65.8276827,126.179162 66.3016434,125.604941 C66.7756041,125.030719 67.0125809,124.082812 67.0125809,122.761191 C67.0125809,121.393997 66.745982,120.402796 66.2127762,119.787558 C65.6795704,119.172321 64.7840715,118.864707 63.5262527,118.864707 L62.2274246,118.864707 L62.2274246,126.466269 Z M58.0985184,129.378378 L58.0985184,106.71041 L63.6492996,106.71041 C64.6974819,106.71041 65.6112098,106.803833 66.3905106,106.990683 C67.1698113,107.177533 67.8625127,107.487426 68.4686356,107.920371 C69.0747584,108.353315 69.5327616,108.952593 69.842659,109.718222 C70.1525564,110.483851 70.3029455,111.408972 70.2938309,112.493613 C70.2847162,115.291804 69.1727482,116.854939 66.9578934,117.183066 C68.2977438,117.438275 69.2980593,118.023882 69.9588699,118.939902 C70.6196805,119.855922 70.9546381,121.143344 70.9637527,122.802207 C70.9728674,124.953259 70.4351123,126.587032 69.3504715,127.703574 C68.2658307,128.820116 66.6844663,129.378378 64.6063309,129.378378 L58.0985184,129.378378 Z M79.2261226,129.651816 C76.8927776,129.651816 75.2202683,129.018359 74.2085444,127.751425 C73.1968206,126.484492 72.6909663,124.629693 72.6909663,122.186972 L72.6909663,113.819785 C72.6909663,112.616654 72.8048975,111.573044 73.0327632,110.688925 C73.2606289,109.804806 73.6274872,109.039189 74.1333491,108.39205 C74.639211,107.744912 75.3159621,107.259565 76.1636226,106.935996 C77.0112831,106.612426 78.0321062,106.450644 79.2261226,106.450644 C81.5503529,106.450644 83.2205836,107.074987 84.2368648,108.323691 C85.2531459,109.572395 85.7612788,111.404408 85.7612788,113.819785 L85.7612788,122.186972 C85.7612788,123.371874 85.645069,124.413205 85.412646,125.310996 C85.180223,126.208787 84.811086,126.988076 84.3052241,127.648886 C83.7993622,128.309697 83.1226112,128.808715 82.2749507,129.145957 C81.4272902,129.483198 80.4110243,129.651816 79.2261226,129.651816 Z M79.2261226,126.589316 C79.6271662,126.589316 79.9689597,126.530072 80.2515132,126.411582 C80.5340667,126.293091 80.7596504,126.138145 80.928271,125.946738 C81.0968916,125.755331 81.2290518,125.504682 81.3247554,125.194785 C81.420459,124.884887 81.4842604,124.574995 81.5161616,124.265097 C81.5480628,123.9552 81.5640132,123.586063 81.5640132,123.157675 L81.5640132,112.862753 C81.5640132,112.315876 81.5366697,111.860151 81.4819819,111.495566 C81.4272942,111.130981 81.3201989,110.786909 81.1606929,110.463339 C81.0011869,110.13977 80.7619315,109.898236 80.4429194,109.73873 C80.1239074,109.579224 79.7183125,109.499472 79.2261226,109.499472 C78.7339326,109.499472 78.3260591,109.579224 78.0024898,109.73873 C77.6789204,109.898236 77.439665,110.13977 77.2847163,110.463339 C77.1297676,110.786909 77.024951,111.130981 76.9702632,111.495566 C76.9155754,111.860151 76.8882319,112.315876 76.8882319,112.862753 L76.8882319,123.157675 C76.8882319,123.586063 76.9041823,123.9552 76.9360835,124.265097 C76.9679847,124.574995 77.0317862,124.884887 77.1274898,125.194785 C77.2231934,125.504682 77.3530749,125.755331 77.5171382,125.946738 C77.6812015,126.138145 77.9067852,126.293091 78.193896,126.411582 C78.4810068,126.530072 78.8250789,126.589316 79.2261226,126.589316 Z M94.3654455,129.651816 C92.0321005,129.651816 90.3595912,129.018359 89.3478674,127.751425 C88.3361436,126.484492 87.8302893,124.629693 87.8302893,122.186972 L87.8302893,113.819785 C87.8302893,112.616654 87.9442204,111.573044 88.1720861,110.688925 C88.3999519,109.804806 88.7668102,109.039189 89.2726721,108.39205 C89.778534,107.744912 90.455285,107.259565 91.3029455,106.935996 C92.150606,106.612426 93.1714291,106.450644 94.3654455,106.450644 C96.6896759,106.450644 98.3599066,107.074987 99.3761877,108.323691 C100.392469,109.572395 100.900602,111.404408 100.900602,113.819785 L100.900602,122.186972 C100.900602,123.371874 100.784392,124.413205 100.551969,125.310996 C100.319546,126.208787 99.950409,126.988076 99.4445471,127.648886 C98.9386852,128.309697 98.2619341,128.808715 97.4142736,129.145957 C96.5666132,129.483198 95.5503473,129.651816 94.3654455,129.651816 Z M94.3654455,126.589316 C94.7664892,126.589316 95.1082827,126.530072 95.3908361,126.411582 C95.6733896,126.293091 95.8989733,126.138145 96.067594,125.946738 C96.2362146,125.755331 96.3683747,125.504682 96.4640783,125.194785 C96.5597819,124.884887 96.6235834,124.574995 96.6554846,124.265097 C96.6873858,123.9552 96.7033361,123.586063 96.7033361,123.157675 L96.7033361,112.862753 C96.7033361,112.315876 96.6759927,111.860151 96.6213049,111.495566 C96.5666171,111.130981 96.4595218,110.786909 96.3000158,110.463339 C96.1405098,110.13977 95.9012544,109.898236 95.5822424,109.73873 C95.2632304,109.579224 94.8576355,109.499472 94.3654455,109.499472 C93.8732556,109.499472 93.465382,109.579224 93.1418127,109.73873 C92.8182434,109.898236 92.578988,110.13977 92.4240393,110.463339 C92.2690906,110.786909 92.1642739,111.130981 92.1095861,111.495566 C92.0548984,111.860151 92.0275549,112.315876 92.0275549,112.862753 L92.0275549,123.157675 C92.0275549,123.586063 92.0435053,123.9552 92.0754065,124.265097 C92.1073077,124.574995 92.1711091,124.884887 92.2668127,125.194785 C92.3625163,125.504682 92.4923978,125.755331 92.6564611,125.946738 C92.8205245,126.138145 93.0461082,126.293091 93.333219,126.411582 C93.6203298,126.530072 93.9644019,126.589316 94.3654455,126.589316 Z M103.338753,129.378378 L103.338753,106.71041 L107.467659,106.71041 L107.467659,116.55416 L111.92469,106.71041 L115.86219,106.71041 L111.528206,116.854941 L116.313362,129.378378 L112.198128,129.378378 L108.287972,118.714316 L107.467659,120.190878 L107.467659,129.378378 L103.338753,129.378378 Z" id="See-the-book" fill="#FFFFFF"></path>
                    </g>
                </g>
            </g>
        </g>
    </g>
</svg>