<?xml version="1.0" encoding="UTF-8"?>
<svg width="33px" height="35px" viewBox="0 0 33 35" version="1.1" xmlns="http://www.w3.org/2000/svg" xmlns:xlink="http://www.w3.org/1999/xlink">
    <!-- Generator: Sketch 50 (54983) - http://www.bohemiancoding.com/sketch -->
    <title>shopping bag</title>
    <desc>Created with Sketch.</desc>
    <defs></defs>
    <g id="Page-1" stroke="none" stroke-width="1" fill="none" fill-rule="evenodd">
        <g id="kit-james-single-03-copy" transform="translate(-246.000000, -1115.000000)">
            <g id="Group-3" transform="translate(0.000000, 379.000000)">
                <g id="Group">
                    <g id="Group-11">
                        <g id="Group-8" transform="translate(0.000000, 128.000000)">
                            <g id="Group-15">
                                <g id="Group-16">
                                    <g id="Group-17">
                                        <g id="Group-23">
                                            <g id="Group-10" transform="translate(135.000000, 0.000000)">
                                                <g id="Group-5">
                                                    <g id="Group-21" transform="translate(0.000000, 595.000000)">
                                                        <g id="Group-22" transform="translate(111.000000, 13.000000)">
                                                            <g id="shopping-bag">
                                                                <path d="M32.935375,31.1436364 L30.25,3.18181818 C30.25,1.42386364 29.019375,0 27.5,0 L16.5,0 L5.5,0 C3.980625,0 2.75,1.42386364 2.75,3.18181818 L0.064625,31.1436364 C0.02475,31.3615909 0,31.5859091 0,31.8181818 C0,33.5761364 1.230625,35 2.75,35 L16.5,35 L30.25,35 C31.769375,35 33,33.5761364 33,31.8181818 C33,31.5859091 32.97525,31.3615909 32.935375,31.1436364 Z" id="Shape" fill="#EFEEDE" fill-rule="nonzero"></path>
                                                                <path d="M23.375,7.7448366 L23.375,9.49346405 C23.375,13.908268 20.290875,17.5 16.5,17.5 C12.709125,17.5 9.625,13.908268 9.625,9.49346405 L9.625,7.7448366 C8.826125,7.41496732 8.25,6.53424837 8.25,5.49019608 C8.25,4.16431373 9.174,3.08823529 10.3125,3.08823529 C11.451,3.08823529 12.375,4.16431373 12.375,5.49019608 L12.375,9.49346405 C12.375,12.1420261 14.22575,14.2973856 16.5,14.2973856 C18.77425,14.2973856 20.625,12.1420261 20.625,9.49346405 L20.625,5.49019608 C20.625,4.16431373 21.549,3.08823529 22.6875,3.08823529 C23.826,3.08823529 24.75,4.16431373 24.75,5.49019608 C24.75,6.53424837 24.173875,7.41496732 23.375,7.7448366 Z" id="Path" fill="#322F2E"></path>
                                                            </g>
                                                        </g>
                                                    </g>
                                                </g>
                                            </g>
                                        </g>
                                    </g>
                                </g>
                            </g>
                        </g>
                    </g>
                </g>
            </g>
        </g>
    </g>
</svg>