<?xml version="1.0" encoding="UTF-8"?>
<svg width="119px" height="24px" viewBox="0 0 119 24" version="1.1" xmlns="http://www.w3.org/2000/svg" xmlns:xlink="http://www.w3.org/1999/xlink">
    <!-- Generator: Sketch 50 (54983) - http://www.bohemiancoding.com/sketch -->
    <title>Group 11</title>
    <desc>Created with Sketch.</desc>
    <defs></defs>
    <g id="Page-1" stroke="none" stroke-width="1" fill="none" fill-rule="evenodd">
        <g id="kit-james-home-03-copy-2" transform="translate(-265.000000, -2009.000000)" fill="#141414" fill-rule="nonzero">
            <g id="Group-10" transform="translate(-4.000000, 507.000000)">
                <g id="Group-7" transform="translate(269.000000, 986.000000)">
                    <g id="tagline" transform="translate(0.000000, 503.000000)">
                        <g id="Group-11" transform="translate(0.000000, 13.000000)">
                            <polygon id="Shape" points="12.5 1 16.36289 8.57047482 25 9.78500719 18.75 15.6783022 20.2250958 24 12.5 20.0704748 4.77490421 24 6.25 15.6783022 0 9.78500719 8.63711002 8.57047482"></polygon>
                            <polygon id="Shape" points="59 0 63.0174056 7.8996259 72 9.16696403 65.5 15.3164892 67.0340996 24 59 19.8996259 50.9659004 24 52.5 15.3164892 46 9.16696403 54.9825944 7.8996259"></polygon>
                            <polygon id="Shape-Copy" points="106 0 110.017406 7.8996259 119 9.16696403 112.5 15.3164892 114.0341 24 106 19.8996259 97.9659004 24 99.5 15.3164892 93 9.16696403 101.982594 7.8996259"></polygon>
                        </g>
                    </g>
                </g>
            </g>
        </g>
    </g>
</svg>